<?xml version="1.0" encoding="UTF-8"?>
<svg version="1.1" xmlns="http://www.w3.org/2000/svg" width="720" height="720">
<path d="M0 0 C0.29132813 0.94359375 0.58265625 1.8871875 0.8828125 2.859375 C3.31411436 10.52856199 6.02939251 17.49217056 10.05859375 24.51171875 C11 27 11 27 10.33276367 28.98413086 C8.70035085 31.45323375 7.21288391 32.33276668 4.6171875 33.7421875 C3.70976807 34.24355225 2.80234863 34.74491699 1.86743164 35.26147461 C0.8799292 35.79393799 -0.10757324 36.32640137 -1.125 36.875 C-3.23395289 38.03877134 -5.34199857 39.20418795 -7.44921875 40.37109375 C-8.53638184 40.97034668 -9.62354492 41.56959961 -10.74365234 42.18701172 C-15.85123263 45.03068328 -20.89519162 47.98007218 -25.9375 50.9375 C-26.93104492 51.51878662 -27.92458984 52.10007324 -28.94824219 52.69897461 C-30.96339164 53.87816563 -32.97820338 55.05793396 -34.99267578 56.23828125 C-39.95069786 59.14273711 -44.91250047 62.04070261 -49.875 64.9375 C-50.84526123 65.50436523 -51.81552246 66.07123047 -52.81518555 66.65527344 C-58.24867417 69.82588645 -63.69244428 72.97770865 -69.1484375 76.109375 C-69.74328949 76.45114273 -70.33814148 76.79291046 -70.95101929 77.14503479 C-73.84032883 78.80497841 -76.73105503 80.46227424 -79.62451172 82.11499023 C-81.17936279 83.0074646 -81.17936279 83.0074646 -82.765625 83.91796875 C-83.68118164 84.44156982 -84.59673828 84.9651709 -85.54003906 85.50463867 C-87.81137932 86.88534124 -89.9071697 88.36440364 -92 90 C-91.63124756 90.52432617 -91.26249512 91.04865234 -90.88256836 91.58886719 C-89.22098898 93.96698459 -87.57917644 96.35810494 -85.9375 98.75 C-85.35677734 99.575 -84.77605469 100.4 -84.17773438 101.25 C-83.63310547 102.04921875 -83.08847656 102.8484375 -82.52734375 103.671875 C-82.01937256 104.4050293 -81.51140137 105.13818359 -80.98803711 105.89355469 C-80 108 -80 108 -80.1315918 110.09912109 C-81.19862758 112.43478052 -82.26136572 113.28480969 -84.3671875 114.7421875 C-85.07810547 115.24363281 -85.78902344 115.74507813 -86.52148438 116.26171875 C-87.29814453 116.79410156 -88.07480469 117.32648438 -88.875 117.875 C-90.52940445 119.03798407 -92.18302561 120.20208307 -93.8359375 121.3671875 C-94.69155273 121.9662793 -95.54716797 122.56537109 -96.42871094 123.18261719 C-100.49877053 126.05932851 -104.497749 129.0300526 -108.5 132 C-114.63916402 136.53884261 -120.803565 141.039679 -127 145.5 C-133.17194427 149.94420481 -139.31694807 154.42276084 -145.4375 158.9375 C-146.60369873 159.79758667 -146.60369873 159.79758667 -147.79345703 160.67504883 C-151.94825308 163.74164319 -156.09852575 166.81426286 -160.24609375 169.890625 C-161.53398804 170.84400757 -161.53398804 170.84400757 -162.84790039 171.81665039 C-164.49044732 173.03265243 -166.13163864 174.25048849 -167.77124023 175.47045898 C-171.42185166 178.17131784 -175.03665681 180.76568502 -179 183 C-191.04314047 167.96941383 -200.75781999 151.37021472 -209 134 C-199.60570033 128.49979923 -190.08261846 123.42210377 -180.3125 118.625 C-171.32952672 114.20239201 -162.41997109 109.66779124 -153.56970215 104.98468018 C-143.53490108 99.68232788 -133.42135154 94.53430714 -123.3125 89.375 C-121.3274201 88.36078249 -119.3423938 87.34646007 -117.35742188 86.33203125 C-112.57222866 83.88681718 -107.78638747 81.44287547 -103 79 C-104.58151435 75.18674297 -106.16554589 71.37453636 -107.75 67.5625 C-108.1934375 66.49322266 -108.636875 65.42394531 -109.09375 64.32226562 C-109.53203125 63.26845703 -109.9703125 62.21464844 -110.421875 61.12890625 C-110.81987305 60.17056885 -111.21787109 59.21223145 -111.62792969 58.22485352 C-113.37085949 54.12834822 -115.18204682 50.06365797 -117 46 C-117.83238693 46.27402649 -118.66477386 46.54805298 -119.52238464 46.8303833 C-138.4368037 53.05673482 -157.35286057 59.27807494 -176.27186584 65.49047852 C-184.21499017 68.09885249 -192.15725846 70.70975132 -200.09727478 73.32757568 C-203.57849846 74.47417549 -207.06118873 75.61624858 -210.54458618 76.75622559 C-212.04720329 77.24901687 -213.54914755 77.74386489 -215.05038452 78.24084473 C-217.05920794 78.90556238 -219.07020879 79.56317659 -221.08203125 80.21875 C-222.14655518 80.56873047 -223.2110791 80.91871094 -224.30786133 81.27929688 C-227 82 -227 82 -231 82 C-234.7474334 71.08991908 -237.80991152 60.13972826 -240.3125 48.875 C-240.56660645 47.73828857 -240.82071289 46.60157715 -241.08251953 45.43041992 C-242.4138375 39.28925194 -243.43759826 33.25920058 -244 27 C-238.02673938 25.11996187 -232.04422677 24.08895052 -225.86401367 23.12060547 C-224.7640506 22.94474915 -223.66408752 22.76889282 -222.53079224 22.58770752 C-218.91050258 22.01002002 -215.28926805 21.43850883 -211.66796875 20.8671875 C-209.14922389 20.46681381 -206.63053259 20.06610306 -204.1118927 19.66506958 C-198.84266863 18.82697365 -193.573024 17.99160131 -188.30297852 17.15869141 C-182.20783988 16.19536139 -176.11335815 15.22796502 -170.01924533 14.2581681 C-164.15100034 13.32431649 -158.28246188 12.3923227 -152.4137516 11.46139908 C-149.91733189 11.06537999 -147.42096214 10.66904585 -144.92464256 10.27239609 C-141.4463534 9.72018084 -137.96774004 9.17005886 -134.48901367 8.62060547 C-133.45056808 8.45543427 -132.4121225 8.29026306 -131.34220886 8.12008667 C-130.39877625 7.97152222 -129.45534363 7.82295776 -128.48332214 7.66989136 C-127.6609566 7.5397508 -126.83859106 7.40961025 -125.99130535 7.27552605 C-124 7 -124 7 -122 7 C-121.1631665 10.62420124 -120.33112766 14.24948637 -119.5 17.875 C-119.14228516 19.42380859 -119.14228516 19.42380859 -118.77734375 21.00390625 C-118.55175781 21.99003906 -118.32617188 22.97617187 -118.09375 23.9921875 C-117.88427734 24.90339355 -117.67480469 25.81459961 -117.45898438 26.75341797 C-117 29 -117 29 -117 31 C-116.44197189 30.84760864 -115.88394379 30.69521729 -115.30900574 30.53820801 C-101.60648651 26.79645555 -87.90285983 23.05878114 -74.19815063 19.32505798 C-66.65142975 17.26883454 -59.10552548 15.20965343 -51.56047153 13.1473217 C-46.10034267 11.65507934 -40.63944749 10.16566317 -35.17800808 8.67822456 C-31.88744805 7.78191699 -28.5972725 6.88424849 -25.30795288 5.98339844 C-21.62812251 4.97631092 -17.94704077 3.97393024 -14.265625 2.97265625 C-12.61470604 2.51905479 -12.61470604 2.51905479 -10.93043518 2.05628967 C-9.92504196 1.78384933 -8.91964874 1.511409 -7.88378906 1.23071289 C-7.0082135 0.99171768 -6.13263794 0.75272247 -5.23052979 0.50648499 C-3 0 -3 0 0 0 Z " fill="#FFFFFF" transform="translate(248,390)"/>
<path d="M0 0 C4.23523892 3.93546702 7.39031397 8.17931382 10.5625 13 C11.07409668 13.77239014 11.58569336 14.54478027 12.11279297 15.34057617 C26.61639308 37.54244498 26.61639308 37.54244498 31 49 C21.60570033 54.50020077 12.08261846 59.57789623 2.3125 64.375 C-6.67047328 68.79760799 -15.58002891 73.33220876 -24.43029785 78.01531982 C-34.46509892 83.31767212 -44.57864846 88.46569286 -54.6875 93.625 C-56.6725799 94.63921751 -58.6576062 95.65353993 -60.64257812 96.66796875 C-65.42777134 99.11318282 -70.21361253 101.55712453 -75 104 C-73.41848565 107.81325703 -71.83445411 111.62546364 -70.25 115.4375 C-69.8065625 116.50677734 -69.363125 117.57605469 -68.90625 118.67773438 C-68.24882813 120.25844727 -68.24882813 120.25844727 -67.578125 121.87109375 C-67.18012695 122.82943115 -66.78212891 123.78776855 -66.37207031 124.77514648 C-64.62914051 128.87165178 -62.81795318 132.93634203 -61 137 C-60.16761307 136.72597351 -59.33522614 136.45194702 -58.47761536 136.1696167 C-39.5631963 129.94326518 -20.64713943 123.72192506 -1.72813416 117.50952148 C6.21499017 114.90114751 14.15725846 112.29024868 22.09727478 109.67242432 C25.57849846 108.52582451 29.06118873 107.38375142 32.54458618 106.24377441 C34.04720329 105.75098313 35.54914755 105.25613511 37.05038452 104.75915527 C39.05920794 104.09443762 41.07020879 103.43682341 43.08203125 102.78125 C44.14655518 102.43126953 45.2110791 102.08128906 46.30786133 101.72070312 C49 101 49 101 53 101 C56.7474334 111.91008092 59.80991152 122.86027174 62.3125 134.125 C62.56660645 135.26171143 62.82071289 136.39842285 63.08251953 137.56958008 C64.4138375 143.71074806 65.43759826 149.74079942 66 156 C60.02673938 157.88003813 54.04422677 158.91104948 47.86401367 159.87939453 C46.21406906 160.14317902 46.21406906 160.14317902 44.53079224 160.41229248 C40.91050258 160.98997998 37.28926805 161.56149117 33.66796875 162.1328125 C31.14922389 162.53318619 28.63053259 162.93389694 26.1118927 163.33493042 C20.84266863 164.17302635 15.573024 165.00839869 10.30297852 165.84130859 C4.20783988 166.80463861 -1.88664185 167.77203498 -7.98075467 168.7418319 C-13.84899966 169.67568351 -19.71753812 170.6076773 -25.5862484 171.53860092 C-28.08266811 171.93462001 -30.57903786 172.33095415 -33.07535744 172.72760391 C-36.5536466 173.27981916 -40.03225996 173.82994114 -43.51098633 174.37939453 C-44.54943192 174.54456573 -45.5878775 174.70973694 -46.65779114 174.87991333 C-48.07294006 175.10276001 -48.07294006 175.10276001 -49.51667786 175.33010864 C-50.3390434 175.4602492 -51.16140894 175.59038975 -52.00869465 175.72447395 C-54 176 -54 176 -56 176 C-56.8368335 172.37579876 -57.66887234 168.75051363 -58.5 165.125 C-58.73847656 164.09246094 -58.97695313 163.05992187 -59.22265625 161.99609375 C-59.44824219 161.00996094 -59.67382812 160.02382813 -59.90625 159.0078125 C-60.11572266 158.09660645 -60.32519531 157.18540039 -60.54101562 156.24658203 C-61 154 -61 154 -61 152 C-61.55802811 152.15239136 -62.11605621 152.30478271 -62.69099426 152.46179199 C-76.39351349 156.20354445 -90.09714017 159.94121886 -103.80184937 163.67494202 C-111.34857025 165.73116546 -118.89447452 167.79034657 -126.43952847 169.8526783 C-131.89965733 171.34492066 -137.36055251 172.83433683 -142.82199192 174.32177544 C-146.11255195 175.21808301 -149.4027275 176.11575151 -152.69204712 177.01660156 C-156.37187749 178.02368908 -160.05295923 179.02606976 -163.734375 180.02734375 C-164.83498764 180.32974472 -165.93560028 180.63214569 -167.06956482 180.94371033 C-168.07495804 181.21615067 -169.08035126 181.488591 -170.11621094 181.76928711 C-170.9917865 182.00828232 -171.86736206 182.24727753 -172.76947021 182.49351501 C-175 183 -175 183 -178 183 C-178.29132813 182.05640625 -178.58265625 181.1128125 -178.8828125 180.140625 C-181.31411436 172.47143801 -184.02939251 165.50782944 -188.05859375 158.48828125 C-189 156 -189 156 -188.33276367 154.01586914 C-186.70035085 151.54676625 -185.21288391 150.66723332 -182.6171875 149.2578125 C-181.70976807 148.75644775 -180.80234863 148.25508301 -179.86743164 147.73852539 C-178.38617798 146.93983032 -178.38617798 146.93983032 -176.875 146.125 C-174.76604711 144.96122866 -172.65800143 143.79581205 -170.55078125 142.62890625 C-169.46361816 142.02965332 -168.37645508 141.43040039 -167.25634766 140.81298828 C-162.14876737 137.96931672 -157.10480838 135.01992782 -152.0625 132.0625 C-151.06895508 131.48121338 -150.07541016 130.89992676 -149.05175781 130.30102539 C-147.03660836 129.12183437 -145.02179662 127.94206604 -143.00732422 126.76171875 C-138.04930214 123.85726289 -133.08749953 120.95929739 -128.125 118.0625 C-127.15473877 117.49563477 -126.18447754 116.92876953 -125.18481445 116.34472656 C-119.75132583 113.17411355 -114.30755572 110.02229135 -108.8515625 106.890625 C-108.25671051 106.54885727 -107.66185852 106.20708954 -107.04898071 105.85496521 C-104.15967117 104.19502159 -101.26894497 102.53772576 -98.37548828 100.88500977 C-97.3389209 100.29002686 -96.30235352 99.69504395 -95.234375 99.08203125 C-94.31881836 98.55843018 -93.40326172 98.0348291 -92.45996094 97.49536133 C-90.18862068 96.11465876 -88.0928303 94.63559636 -86 93 C-86.36875244 92.47567383 -86.73750488 91.95134766 -87.11743164 91.41113281 C-88.77901102 89.03301541 -90.42082356 86.64189506 -92.0625 84.25 C-92.64322266 83.425 -93.22394531 82.6 -93.82226562 81.75 C-94.36689453 80.95078125 -94.91152344 80.1515625 -95.47265625 79.328125 C-95.98062744 78.5949707 -96.48859863 77.86181641 -97.01196289 77.10644531 C-98 75 -98 75 -97.8684082 72.90087891 C-96.80137242 70.56521948 -95.73863428 69.71519031 -93.6328125 68.2578125 C-92.92189453 67.75636719 -92.21097656 67.25492187 -91.47851562 66.73828125 C-90.70185547 66.20589844 -89.92519531 65.67351562 -89.125 65.125 C-87.47059555 63.96201593 -85.81697439 62.79791693 -84.1640625 61.6328125 C-83.30844727 61.0337207 -82.45283203 60.43462891 -81.57128906 59.81738281 C-77.50122947 56.94067149 -73.502251 53.9699474 -69.5 51 C-63.36083598 46.46115739 -57.196435 41.960321 -51 37.5 C-42.438393 31.33508124 -33.94192095 25.0843839 -25.45703125 18.81445312 C-20.35572986 15.04727587 -15.24755768 11.2894106 -10.14086914 7.52954102 C-9.39442139 6.97967529 -8.64797363 6.42980957 -7.87890625 5.86328125 C-6.89772827 5.14072144 -6.89772827 5.14072144 -5.89672852 4.40356445 C-3.92466378 2.94425178 -1.9610902 1.47401849 0 0 Z " fill="#FFFFFF" transform="translate(650,147)"/>
<path d="M0 0 C2.48013045 15.46340738 4.95759552 30.92723926 7.43187714 46.39158344 C8.58075746 53.57172503 9.73051379 60.7517243 10.88232422 67.93139648 C11.88608871 74.18825621 12.88821794 80.44537525 13.88837385 86.70281285 C14.41813913 90.01690115 14.9487295 93.33085263 15.48127747 96.64449501 C16.07496556 100.34118668 16.66576226 104.03832937 17.25585938 107.7355957 C17.43352341 108.83754776 17.61118744 109.93949982 17.79423523 111.07484436 C17.95410416 112.08025269 18.11397308 113.08566101 18.27868652 114.12153625 C18.41879906 114.9963178 18.55891159 115.87109934 18.70326996 116.77238941 C19 119 19 119 19 122 C15.37579876 122.8368335 11.75051363 123.66887234 8.125 124.5 C6.57619141 124.85771484 6.57619141 124.85771484 4.99609375 125.22265625 C4.00996094 125.44824219 3.02382813 125.67382812 2.0078125 125.90625 C1.09660645 126.11572266 0.18540039 126.32519531 -0.75341797 126.54101562 C-3 127 -3 127 -5 127 C-4.63711884 128.25734955 -4.27423767 129.5146991 -3.90036011 130.81015015 C-0.12376946 143.93707783 3.50523665 157.09909613 7.0546875 170.2890625 C7.60658647 172.33695314 8.15851788 174.38483505 8.71047974 176.43270874 C9.85276543 180.67259525 10.99368981 184.91284538 12.13378906 189.15332031 C13.59615451 194.59141783 15.06355114 200.02814475 16.53208733 205.46457863 C17.66698487 209.66908019 18.79851333 213.8744829 19.92908096 218.0801506 C20.4693119 220.08758766 21.01077448 222.09469368 21.5534935 224.1014595 C22.30597419 226.88522211 23.05373377 229.67021086 23.80029297 232.45556641 C24.13680626 233.69432777 24.13680626 233.69432777 24.4801178 234.95811462 C25.30511088 238.05176146 26 240.78307275 26 244 C25.05640625 244.29132813 24.1128125 244.58265625 23.140625 244.8828125 C15.48060075 247.30988978 8.45269155 250.04399895 1.390625 253.9609375 C-1 255 -1 255 -4 254 C-5.38769531 252.09594727 -5.38769531 252.09594727 -6.828125 249.56640625 C-7.37275391 248.62087891 -7.91738281 247.67535156 -8.47851562 246.70117188 C-9.35540039 245.1475293 -9.35540039 245.1475293 -10.25 243.5625 C-10.86552734 242.48935547 -11.48105469 241.41621094 -12.11523438 240.31054688 C-13.42224239 238.03088173 -14.7255258 235.74907776 -16.02539062 233.46533203 C-18.54407589 229.04517641 -21.08716754 224.63936331 -23.63183594 220.23413086 C-24.88628293 218.06245557 -26.13952152 215.89008184 -27.39160156 213.71704102 C-32.13228914 205.48943686 -36.90884595 197.28330484 -41.70410156 189.08740234 C-44.87205683 183.66729923 -48.01868013 178.23574842 -51.140625 172.7890625 C-51.83333235 171.58203068 -52.52604067 170.37499943 -53.21875 169.16796875 C-54.55043968 166.84704203 -55.87781516 164.5238122 -57.203125 162.19921875 C-57.80125 161.15636719 -58.399375 160.11351562 -59.015625 159.0390625 C-59.80888184 157.65001709 -59.80888184 157.65001709 -60.61816406 156.23291016 C-61.93860315 153.90861113 -61.93860315 153.90861113 -64 152 C-64.52432617 152.36875244 -65.04865234 152.73750488 -65.58886719 153.11743164 C-67.96698459 154.77901102 -70.35810494 156.42082356 -72.75 158.0625 C-73.575 158.64322266 -74.4 159.22394531 -75.25 159.82226562 C-76.04921875 160.36689453 -76.8484375 160.91152344 -77.671875 161.47265625 C-78.4050293 161.98062744 -79.13818359 162.48859863 -79.89355469 163.01196289 C-82 164 -82 164 -84.13793945 163.81591797 C-87.1946682 162.47652011 -88.6431849 159.75360527 -90.4375 157.0625 C-91.32595568 155.77544258 -92.21532315 154.48901423 -93.10546875 153.203125 C-93.5751709 152.51798828 -94.04487305 151.83285156 -94.52880859 151.12695312 C-97.04891516 147.48354648 -99.65126416 143.90003463 -102.25 140.3125 C-102.79454834 139.558479 -103.33909668 138.80445801 -103.90014648 138.02758789 C-108.48241021 131.6905565 -113.12105592 125.39595373 -117.76855469 119.10668945 C-121.7135973 113.76230416 -125.61930886 108.39126007 -129.5 103 C-134.10942389 96.59790442 -138.75682908 90.22520959 -143.4375 83.875 C-144.0046875 83.10542969 -144.571875 82.33585937 -145.15625 81.54296875 C-145.70152344 80.80433594 -146.24679688 80.06570312 -146.80859375 79.3046875 C-147.33308105 78.58893555 -147.85756836 77.87318359 -148.39794922 77.13574219 C-149.49604303 75.67184022 -150.62460094 74.23044224 -151.77783203 72.80957031 C-152.33712402 72.11186523 -152.89641602 71.41416016 -153.47265625 70.6953125 C-153.9819165 70.07930176 -154.49117676 69.46329102 -155.01586914 68.82861328 C-156 67 -156 67 -155.9050293 64.95849609 C-154.7218514 62.39808253 -153.39589687 61.5197788 -151.046875 59.96875 C-150.20970947 59.4109082 -149.37254395 58.85306641 -148.51000977 58.27832031 C-147.59920654 57.69147461 -146.68840332 57.10462891 -145.75 56.5 C-144.81792725 55.88995117 -143.88585449 55.27990234 -142.92553711 54.65136719 C-136.24730213 50.32939928 -129.45633662 46.21806391 -122.5625 42.25 C-121.69399414 41.74919922 -120.82548828 41.24839844 -119.93066406 40.73242188 C-115.6761641 38.33227635 -111.68000767 36.46892896 -107 35 C-106.65855957 35.68811768 -106.31711914 36.37623535 -105.96533203 37.08520508 C-99.98462655 49.12575771 -93.9837566 61.14441933 -87.67041016 73.01489258 C-84.02875884 79.88580797 -80.56526781 86.84050357 -77.10717773 93.80517578 C-73.74283846 100.56233048 -70.26147918 107.24899665 -66.72119141 113.9152832 C-61.98534624 122.86171834 -57.48914197 131.92789155 -53 141 C-52.32533691 140.71278076 -51.65067383 140.42556152 -50.95556641 140.12963867 C-47.84764853 138.81016935 -44.73637315 137.4987997 -41.625 136.1875 C-40.56410156 135.73568359 -39.50320313 135.28386719 -38.41015625 134.81835938 C-32.02880617 132.13662637 -25.68151653 129.8158532 -19 128 C-19.50261353 126.5454541 -19.50261353 126.5454541 -20.01538086 125.06152344 C-27.52344827 103.30777819 -34.8565844 81.50132836 -42 59.625 C-42.35617401 58.53505737 -42.71234802 57.44511475 -43.07931519 56.32214355 C-45.08775121 50.17200759 -47.08776815 44.01922727 -49.07568359 37.86242676 C-49.6920176 35.95376113 -50.30953133 34.04547605 -50.92822266 32.13757324 C-51.79015081 29.47600337 -52.64607511 26.81258422 -53.5 24.1484375 C-53.75547607 23.36191803 -54.01095215 22.57539856 -54.27416992 21.76504517 C-55.23931465 18.73370197 -56 16.20219992 -56 13 C-18.15248227 -0 -18.15248227 -0 0 0 Z " fill="#FFFFFF" transform="translate(304,4)"/>
<path d="M0 0 C3.00239421 2.53119351 4.53327113 5.8318471 6.31640625 9.26171875 C7.20314042 10.91155024 8.09260867 12.5599143 8.984375 14.20703125 C9.46052246 15.08907227 9.93666992 15.97111328 10.42724609 16.87988281 C13.06732355 21.68667975 15.85149899 26.40837496 18.62890625 31.13671875 C23.59846719 39.61851926 28.53606135 48.11761275 33.44140625 56.63671875 C38.452979 65.3295836 43.46650183 74.02129187 48.50390625 82.69921875 C49.06335938 83.66794922 49.6228125 84.63667969 50.19921875 85.63476562 C53.58000976 91.44728222 57.13889401 97.09064054 60.94140625 102.63671875 C61.46573242 102.26796631 61.99005859 101.89921387 62.53027344 101.51928711 C64.90839084 99.85770773 67.29951119 98.21589519 69.69140625 96.57421875 C70.51640625 95.99349609 71.34140625 95.41277344 72.19140625 94.81445312 C72.990625 94.26982422 73.78984375 93.72519531 74.61328125 93.1640625 C75.34643555 92.65609131 76.07958984 92.14812012 76.83496094 91.62475586 C78.94140625 90.63671875 78.94140625 90.63671875 81.0793457 90.82080078 C84.13607445 92.16019864 85.58459115 94.88311348 87.37890625 97.57421875 C88.26736193 98.86127617 89.1567294 100.14770452 90.046875 101.43359375 C90.51657715 102.11873047 90.9862793 102.80386719 91.47021484 103.50976562 C93.99032141 107.15317227 96.59267041 110.73668412 99.19140625 114.32421875 C100.00822876 115.45525024 100.00822876 115.45525024 100.84155273 116.60913086 C105.42381646 122.94616225 110.06246217 129.24076502 114.70996094 135.5300293 C118.65500355 140.87441459 122.56071511 146.24545868 126.44140625 151.63671875 C131.05083014 158.03881433 135.69823533 164.41150916 140.37890625 170.76171875 C140.94609375 171.53128906 141.51328125 172.30085937 142.09765625 173.09375 C142.64292969 173.83238281 143.18820312 174.57101562 143.75 175.33203125 C144.2744873 176.0477832 144.79897461 176.76353516 145.33935547 177.50097656 C146.43744928 178.96487853 147.56600719 180.40627651 148.71923828 181.82714844 C149.27853027 182.52485352 149.83782227 183.22255859 150.4140625 183.94140625 C150.92332275 184.55741699 151.43258301 185.17342773 151.95727539 185.80810547 C152.94140625 187.63671875 152.94140625 187.63671875 152.84643555 189.67822266 C151.66325765 192.23863622 150.33730312 193.11693995 147.98828125 194.66796875 C147.15111572 195.22581055 146.3139502 195.78365234 145.45141602 196.35839844 C144.08521118 197.23866699 144.08521118 197.23866699 142.69140625 198.13671875 C141.29329712 199.05179199 141.29329712 199.05179199 139.86694336 199.98535156 C133.18870838 204.30731947 126.39774287 208.41865484 119.50390625 212.38671875 C118.63540039 212.88751953 117.76689453 213.38832031 116.87207031 213.90429688 C112.61757035 216.3044424 108.62141392 218.16778979 103.94140625 219.63671875 C103.59996582 218.94860107 103.25852539 218.2604834 102.90673828 217.55151367 C96.9260328 205.51096104 90.92516285 193.49229942 84.61181641 181.62182617 C80.97016509 174.75091078 77.50667406 167.79621518 74.04858398 160.83154297 C70.68424471 154.07438827 67.20288543 147.3877221 63.66259766 140.72143555 C58.92675249 131.77500041 54.43054822 122.7088272 49.94140625 113.63671875 C49.26674316 113.92393799 48.59208008 114.21115723 47.89697266 114.50708008 C44.78905478 115.8265494 41.6777794 117.13791905 38.56640625 118.44921875 C37.50550781 118.90103516 36.44460938 119.35285156 35.3515625 119.81835938 C28.97021242 122.50009238 22.62292278 124.82086555 15.94140625 126.63671875 C16.27648193 127.60641602 16.61155762 128.57611328 16.95678711 129.57519531 C24.46485452 151.32894056 31.79799065 173.13539039 38.94140625 195.01171875 C39.29758026 196.10166138 39.65375427 197.191604 40.02072144 198.3145752 C42.02915746 204.46471116 44.0291744 210.61749148 46.01708984 216.77429199 C46.63342385 218.68295762 47.25093758 220.5912427 47.86962891 222.49914551 C48.73155706 225.16071538 49.58748136 227.82413453 50.44140625 230.48828125 C50.82462036 231.66806046 50.82462036 231.66806046 51.21557617 232.87167358 C52.1807209 235.90301678 52.94140625 238.43451883 52.94140625 241.63671875 C40.19517697 245.8622172 27.40448877 249.37433744 14.25390625 252.07421875 C12.99553955 252.33283691 11.73717285 252.59145508 10.44067383 252.85791016 C1.51797973 254.63671875 1.51797973 254.63671875 -3.05859375 254.63671875 C-5.5387242 239.17331137 -8.01618927 223.70947949 -10.49047089 208.24513531 C-11.63935121 201.06499372 -12.78910754 193.88499445 -13.94091797 186.70532227 C-14.94468246 180.44846254 -15.94681169 174.1913435 -16.9469676 167.9339059 C-17.47673288 164.6198176 -18.00732325 161.30586612 -18.53987122 157.99222374 C-19.13355931 154.29553207 -19.72435601 150.59838938 -20.31445312 146.90112305 C-20.49211716 145.79917099 -20.66978119 144.69721893 -20.85282898 143.56187439 C-21.01269791 142.55646606 -21.17256683 141.55105774 -21.33728027 140.5151825 C-21.47739281 139.64040095 -21.61750534 138.76561941 -21.76186371 137.86432934 C-22.05859375 135.63671875 -22.05859375 135.63671875 -22.05859375 132.63671875 C-18.43439251 131.79988525 -14.80910738 130.96784641 -11.18359375 130.13671875 C-10.15105469 129.89824219 -9.11851562 129.65976562 -8.0546875 129.4140625 C-7.06855469 129.18847656 -6.08242188 128.96289062 -5.06640625 128.73046875 C-3.69959717 128.41625977 -3.69959717 128.41625977 -2.30517578 128.09570312 C-0.05859375 127.63671875 -0.05859375 127.63671875 1.94140625 127.63671875 C1.69673615 126.76120865 1.45206604 125.88569855 1.19998169 124.98365784 C-5.23474199 101.93776449 -11.56050937 78.86401246 -17.78515625 55.76049805 C-18.97404955 51.34859175 -20.16783044 46.93802164 -21.36253548 42.52768612 C-22.29495232 39.08239471 -23.22403184 35.63621001 -24.15215683 32.18976021 C-24.59189228 30.55911467 -25.03286644 28.92880262 -25.47513199 27.29884148 C-26.08347871 25.05555134 -26.68711301 22.81104513 -27.28955078 20.56616211 C-27.80390182 18.66053749 -27.80390182 18.66053749 -28.3286438 16.71641541 C-29.05859375 13.63671875 -29.05859375 13.63671875 -29.05859375 10.63671875 C-28.115 10.34539062 -27.17140625 10.0540625 -26.19921875 9.75390625 C-18.53003176 7.32260439 -11.56642319 4.60732624 -4.546875 0.578125 C-2.05859375 -0.36328125 -2.05859375 -0.36328125 0 0 Z " fill="#FFFFFF" transform="translate(419.05859375,461.36328125)"/>
<path d="M0 0 C3.23443693 0.32789144 4.89221079 1.51807852 7.14714432 3.77800083 C7.74728576 4.37216913 8.3474272 4.96633742 8.96575475 5.57851082 C9.61556459 6.23705919 10.26537444 6.89560756 10.93487549 7.57411194 C11.98130789 8.61669943 11.98130789 8.61669943 13.04888034 9.68034929 C15.39297205 12.01948564 17.72615613 14.36920979 20.05957031 16.71899414 C21.73437163 18.39464135 23.40983318 20.06962889 25.08590698 21.7440033 C29.16840666 25.82572979 33.24395274 29.9143045 37.31652501 34.00593431 C42.05536355 38.766206 46.80266051 43.51800421 51.55051097 48.26928478 C60.01741747 56.74275836 68.47760177 65.22291081 76.93359375 73.70727539 C85.14817856 81.94939411 93.36590601 90.18835841 101.58789062 98.4230957 C102.09462898 98.93062223 102.60136733 99.43814875 103.1234614 99.96105487 C105.66561934 102.5071279 108.20783931 105.053139 110.75009012 107.59911931 C131.84301844 128.72315154 152.92494056 149.85813936 174 171 C173.58612408 171.48067051 173.17224815 171.96134102 172.74583054 172.4565773 C171.93297529 173.40235956 171.93297529 173.40235956 171.10369873 174.36724854 C170.56607281 174.99229404 170.02844688 175.61733955 169.47452927 176.26132584 C167.93366568 178.07821735 166.47973153 179.93311452 165.078125 181.859375 C164.61019531 182.50003906 164.14226562 183.14070312 163.66015625 183.80078125 C163.19480469 184.44402344 162.72945312 185.08726562 162.25 185.75 C161.76917969 186.40871094 161.28835938 187.06742188 160.79296875 187.74609375 C158.809831 190.46945562 156.86930043 193.19604936 155 196 C151.60997279 194.70891809 148.47839169 193.24218459 145.32421875 191.453125 C144.42662842 190.94539551 143.52903809 190.43766602 142.60424805 189.91455078 C141.64172119 189.36524902 140.67919434 188.81594727 139.6875 188.25 C138.67276611 187.67362793 137.65803223 187.09725586 136.61254883 186.50341797 C127.4219122 181.26959599 118.28811786 175.93975958 109.16015625 170.59765625 C102.82912995 166.89487015 96.4793442 163.22509326 90.125 159.5625 C89.06168457 158.94947021 87.99836914 158.33644043 86.90283203 157.70483398 C81.77824028 154.75130666 76.65246403 151.79984122 71.52600098 148.8495636 C69.11782525 147.46340262 66.71009301 146.07647251 64.3024292 144.68942261 C62.59741766 143.70760702 60.8917333 142.72696016 59.18603516 141.74633789 C57.64181885 140.85676392 57.64181885 140.85676392 56.06640625 139.94921875 C55.15834229 139.42674561 54.25027832 138.90427246 53.31469727 138.3659668 C51.50873799 137.30022034 49.74478871 136.16319248 48 135 C49.60841083 130.2209862 52.28113962 126.41897066 55.125 122.3125 C58.56040967 118.01144163 58.56040967 118.01144163 60 113 C58.58665028 111.69901671 58.58665028 111.69901671 56.6953125 110.41796875 C55.61636719 109.64839844 55.61636719 109.64839844 54.515625 108.86328125 C53.33226562 108.03376953 53.33226562 108.03376953 52.125 107.1875 C50.4608145 106.0040792 48.79675542 104.82048061 47.1328125 103.63671875 C46.27719727 103.03134277 45.42158203 102.4259668 44.54003906 101.80224609 C40.67513688 99.05996352 36.83805007 96.27967226 33 93.5 C31.49887454 92.41512015 29.99757181 91.33048555 28.49609375 90.24609375 C27.38210205 89.44147705 27.38210205 89.44147705 26.24560547 88.62060547 C24.00994555 87.00717749 21.77275484 85.39589422 19.53515625 83.78515625 C11.02988066 77.65897873 2.5614328 71.48675007 -5.86352539 65.25048828 C-9.89549252 62.27035677 -13.94260704 59.31529976 -18.0234375 56.40234375 C-18.83748047 55.82033203 -19.65152344 55.23832031 -20.49023438 54.63867188 C-22.03289108 53.53821816 -23.57829194 52.44159684 -25.12695312 51.34960938 C-29.12429885 48.49647157 -32.64238737 45.58803703 -36 42 C-26.62526242 29.68954083 -17.07212718 17.66072452 -6.37695312 6.45800781 C-5.01753539 5.01856762 -3.70355739 3.53665011 -2.390625 2.0546875 C-1.60171875 1.37664062 -0.8128125 0.69859375 0 0 Z " fill="#FFFFFF" transform="translate(104,106)"/>
<path d="M0 0 C3.78518732 1.4160506 7.19749321 3.15421065 10.69921875 5.16796875 C11.81248535 5.80613525 12.92575195 6.44430176 14.07275391 7.10180664 C15.27771682 7.79695534 16.4826309 8.4921887 17.6875 9.1875 C18.94434799 9.90968618 20.20134912 10.6316059 21.45849609 11.35327148 C24.68637148 13.20743067 27.91189349 15.06563953 31.13653564 16.92541504 C33.99525204 18.57392183 36.85518454 20.22031688 39.71484375 21.8671875 C43.99642341 24.33442305 48.27617756 26.80478905 52.5546875 29.27734375 C56.91140146 31.7950128 61.27092435 34.30771243 65.6328125 36.81640625 C79.47856902 44.7832106 93.26900113 52.83691909 107 61 C105.8125621 64.16547916 104.5421353 66.92114319 102.6171875 69.69921875 C102.17246094 70.35083984 101.72773437 71.00246094 101.26953125 71.67382812 C100.80933594 72.33833984 100.34914063 73.00285156 99.875 73.6875 C96.43959033 77.98855837 96.43959033 77.98855837 95 83 C96.41334972 84.30098329 96.41334972 84.30098329 98.3046875 85.58203125 C99.38363281 86.35160156 99.38363281 86.35160156 100.484375 87.13671875 C101.66773438 87.96623047 101.66773438 87.96623047 102.875 88.8125 C104.5391855 89.9959208 106.20324458 91.17951939 107.8671875 92.36328125 C109.15061035 93.27134521 109.15061035 93.27134521 110.45996094 94.19775391 C114.32486312 96.94003648 118.16194993 99.72032774 122 102.5 C123.50112546 103.58487985 125.00242819 104.66951445 126.50390625 105.75390625 C127.24656738 106.29031738 127.98922852 106.82672852 128.75439453 107.37939453 C130.99005445 108.99282251 133.22724516 110.60410578 135.46484375 112.21484375 C143.97011934 118.34102127 152.4385672 124.51324993 160.86352539 130.74951172 C164.89549252 133.72964323 168.94260704 136.68470024 173.0234375 139.59765625 C173.83748047 140.17966797 174.65152344 140.76167969 175.49023438 141.36132812 C177.03289108 142.46178184 178.57829194 143.55840316 180.12695312 144.65039062 C184.12429885 147.50352843 187.64238737 150.41196297 191 154 C182.95607733 164.56289636 174.8396079 175.00544846 165.875 184.8125 C165.39627441 185.33972656 164.91754883 185.86695313 164.42431641 186.41015625 C160.80776666 190.31647388 157.10554183 193.48096415 153 197 C96.24 140.24 39.48 83.48 -19 25 C-17.02 22.69 -15.04 20.38 -13 18 C-12.00670196 16.72841481 -11.0274798 15.44534541 -10.078125 14.140625 C-9.61019531 13.49996094 -9.14226562 12.85929687 -8.66015625 12.19921875 C-7.96212891 11.23435547 -7.96212891 11.23435547 -7.25 10.25 C-6.76917969 9.59128906 -6.28835938 8.93257813 -5.79296875 8.25390625 C-3.809831 5.53054438 -1.86930043 2.80395064 0 0 Z " fill="#FFFFFF" transform="translate(461,418)"/>
<path d="M0 0 C4.56700604 1.49948604 7.99162451 4.08428009 11.6875 7.0625 C12.61006592 7.79678223 12.61006592 7.79678223 13.55126953 8.54589844 C18.09561939 12.19416263 22.47210878 15.99971381 26.76171875 19.9453125 C28.87039527 21.88102603 31.01786328 23.75819976 33.1875 25.625 C36.96848935 28.91315163 40.50742009 32.40919128 44 36 C42.5578983 39.3065618 40.76940617 41.46961394 38.2121582 43.99902344 C37.43407303 44.77372986 36.65598785 45.54843628 35.85432434 46.34661865 C35.01165512 47.17582825 34.1689859 48.00503784 33.30078125 48.859375 C32.43237106 49.72258362 31.56396088 50.58579224 30.66923523 51.47515869 C27.88835415 54.2382215 25.10090682 56.99453374 22.3125 59.75 C19.5427753 62.4919961 16.77455588 65.23546835 14.00932312 67.98199463 C12.2891591 69.690027 10.56632939 71.39538039 8.84040833 73.09759521 C8.04656235 73.88491028 7.25271637 74.67222534 6.43481445 75.48339844 C5.74579544 76.16416443 5.05677643 76.84493042 4.34687805 77.54632568 C2.47814596 79.50009569 0.71952343 81.47899995 -1.03726196 83.53031921 C-6.04135627 89.28419136 -11.459661 94.63231059 -16.83862305 100.03149414 C-18.02544089 101.22622857 -19.21208152 102.42113907 -20.39855957 103.61621094 C-24.2659066 107.5095541 -28.13850979 111.39764596 -32.01171875 115.28515625 C-33.34862182 116.62742445 -34.68551869 117.96969883 -36.02240944 119.31197929 C-41.57841676 124.8895643 -47.1358411 130.46573094 -52.69699383 136.03818607 C-60.65756683 144.01505061 -68.60948396 152.00032946 -76.54978341 159.9973765 C-82.14292157 165.62912325 -87.74552592 171.25133887 -93.35535079 176.8664636 C-96.70391943 180.21869228 -100.04814095 183.57500903 -103.38232994 186.94154549 C-106.51110194 190.10024518 -109.65136894 193.24703181 -112.80104828 196.38488007 C-113.95674701 197.54035692 -115.10814474 198.7001534 -116.25496101 199.86444664 C-117.81621983 201.4482036 -119.39196209 203.01593497 -120.97245789 204.58045959 C-121.85197459 205.46328645 -122.7314913 206.3461133 -123.63766003 207.25569248 C-126 209 -126 209 -128.1953249 208.8719244 C-130.5293661 207.74423805 -132.07337219 206.30330214 -133.9375 204.5 C-139.52187831 199.34518926 -145.69584048 195.2092688 -152 191 C-150.65544302 187.45565573 -149.08771656 184.19200807 -147.234375 180.88671875 C-146.68144775 179.89873291 -146.12852051 178.91074707 -145.55883789 177.89282227 C-144.96192139 176.83506592 -144.36500488 175.77730957 -143.75 174.6875 C-143.12665771 173.57882568 -142.50331543 172.47015137 -141.86108398 171.32788086 C-136.52126695 161.86059123 -131.05876975 152.46700035 -125.5625 143.08984375 C-121.86786692 136.78429585 -118.21146714 130.45705914 -114.5625 124.125 C-113.95083984 123.06369873 -113.33917969 122.00239746 -112.70898438 120.90893555 C-111.45818271 118.73820527 -110.20753341 116.5673872 -108.95703125 114.39648438 C-105.83351705 108.97553508 -102.70645884 103.55663134 -99.57955933 98.13763428 C-97.97086318 95.34965241 -96.36239358 92.56153985 -94.75390625 89.7734375 C-93.8359375 88.18229167 -92.91796875 86.59114583 -92 85 C-88.00977097 85 -87.31747824 85.12133375 -84.21484375 87.15234375 C-83.51939453 87.59900391 -82.82394531 88.04566406 -82.10742188 88.50585938 C-81.39134766 88.97830078 -80.67527344 89.45074219 -79.9375 89.9375 C-78.51088772 90.8660113 -77.08256728 91.7919047 -75.65234375 92.71484375 C-75.02320068 93.12855225 -74.39405762 93.54226074 -73.74584961 93.96850586 C-71.86685872 95.16122168 -71.86685872 95.16122168 -69 96 C-68.28457031 94.98164063 -67.56914062 93.96328125 -66.83203125 92.9140625 C-56.46977602 78.1857874 -45.93298097 63.59291344 -35.2331543 49.1081543 C-29.64875262 41.54121645 -24.14230878 33.91941725 -18.6484375 26.28662109 C-16.91519719 23.88236625 -15.17694348 21.48180151 -13.4375 19.08203125 C-12.85170166 18.2732251 -12.26590332 17.46441895 -11.66235352 16.63110352 C-10.54645715 15.09064531 -9.42980807 13.55073197 -8.31225586 12.01147461 C-5.45315453 8.06093966 -2.67397073 4.0782863 0 0 Z " fill="#FFFFFF" transform="translate(570,68)"/>
<path d="M0 0 C2.34419137 1.1189307 3.88140577 2.55786696 5.74929333 4.36480618 C11.33367163 9.51961692 17.50763381 13.65553738 23.81179333 17.86480618 C22.46723635 21.40915045 20.89950988 24.67279811 19.04616833 27.97808743 C18.49324108 28.96607327 17.94031384 29.9540591 17.37063122 30.97198391 C16.77371471 32.02974026 16.17679821 33.0874966 15.56179333 34.17730618 C14.93845104 35.28598049 14.31510876 36.39465481 13.67287731 37.53692532 C8.33306028 47.00421494 2.87056308 56.39780583 -2.62570667 65.77496243 C-6.32033975 72.08051032 -9.97673953 78.40774704 -13.62570667 84.73980618 C-14.23736683 85.80110744 -14.84902699 86.86240871 -15.4792223 87.95587063 C-16.73002396 90.1266009 -17.98067326 92.29741898 -19.23117542 94.4683218 C-22.35468962 99.8892711 -25.48174783 105.30817484 -28.60864735 110.7271719 C-30.21734349 113.51515377 -31.82581309 116.30326633 -33.43430042 119.09136868 C-34.35226917 120.68251451 -35.27023792 122.27366034 -36.18820667 123.86480618 C-40.1784357 123.86480618 -40.87072843 123.74347243 -43.97336292 121.71246243 C-44.66881214 121.26580227 -45.36426136 120.81914211 -46.0807848 120.3589468 C-46.79685902 119.88650539 -47.51293324 119.41406399 -48.25070667 118.92730618 C-49.67731895 117.99879487 -51.10563939 117.07290147 -52.53586292 116.14996243 C-53.16500599 115.73625393 -53.79414906 115.32254543 -54.44235706 114.89630032 C-56.32134795 113.7035845 -56.32134795 113.7035845 -59.18820667 112.86480618 C-59.90363636 113.88316555 -60.61906605 114.90152493 -61.35617542 115.95074368 C-71.71843065 130.67901877 -82.2552257 145.27189274 -92.95505238 159.75665188 C-98.53945405 167.32358972 -104.0458979 174.94538892 -109.53976917 182.57818508 C-111.27300948 184.98243993 -113.01126319 187.38300467 -114.75070667 189.78277493 C-115.33650501 190.59158108 -115.92230335 191.40038723 -116.52585316 192.23370266 C-117.64174952 193.77416086 -118.7583986 195.31407421 -119.87595081 196.85333157 C-122.73505214 200.80386651 -125.51423594 204.78651988 -128.18820667 208.86480618 C-132.75521272 207.36532014 -136.17983118 204.78052609 -139.87570667 201.80230618 C-140.49075062 201.31278469 -141.10579456 200.82326321 -141.7394762 200.31890774 C-146.28382606 196.67064354 -150.66031546 192.86509237 -154.94992542 188.91949368 C-157.05860195 186.98378015 -159.20606995 185.10660641 -161.37570667 183.23980618 C-165.15669602 179.95165454 -168.69562676 176.45561489 -172.18820667 172.86480618 C-170.70832445 169.42747681 -168.77536134 167.21400944 -166.12497425 164.59039211 C-165.28682682 163.75562344 -164.44867939 162.92085476 -163.58513355 162.06079006 C-162.67684299 161.16595913 -161.76855244 160.2711282 -160.83273792 159.34918118 C-159.4037154 157.92810857 -157.97469558 156.50703322 -156.54582977 155.08580303 C-154.54214682 153.09524463 -152.53396614 151.10925427 -150.52573109 149.12329006 C-146.5510565 145.19172509 -142.58292967 141.25358468 -138.61829662 137.31189632 C-137.24331536 135.94699773 -135.86471026 134.5857528 -134.48601246 133.22460842 C-133.63210423 132.3772311 -132.77819599 131.52985378 -131.89841175 130.65679836 C-131.15609806 129.92273769 -130.41378437 129.18867702 -129.64897633 128.43237209 C-127.72874364 126.4288022 -125.920223 124.4046893 -124.11652088 122.30006313 C-119.21001866 116.65520666 -113.90046672 111.40454695 -108.62497425 106.10870266 C-107.46771295 104.94352421 -106.31062861 103.77816998 -105.15370655 102.61265469 C-101.38375286 98.81671217 -97.60854966 95.02601419 -93.83273792 91.23589993 C-92.52926697 89.92706362 -91.22580211 88.61822125 -89.92234325 87.3093729 C-84.50530468 81.87075812 -79.08684985 76.43356096 -73.66466713 71.00007439 C-65.90378247 63.22289745 -58.15155812 55.43730794 -50.41094571 47.63995212 C-44.95793407 42.1483313 -39.49545651 36.66624302 -34.02575701 31.19124371 C-30.76102389 27.92285074 -27.50064024 24.65037401 -24.25028896 21.36767292 C-21.2003105 18.28776555 -18.13884099 15.21977803 -15.06795406 12.16072178 C-13.94128117 11.03427075 -12.81890849 9.90350037 -11.70111942 8.7682333 C-10.17926696 7.22388003 -8.64294754 5.69557518 -7.10185719 4.17045498 C-5.81576667 2.87939925 -5.81576667 2.87939925 -4.50369453 1.56226158 C-2.18820667 -0.13519382 -2.18820667 -0.13519382 0 0 Z " fill="#FFFFFF" transform="translate(278.18820667266846,443.13519382476807)"/>
<path d="M0 0 C0.61833552 0.06892456 1.23667105 0.13784912 1.87374401 0.2088623 C2.68467164 0.29913696 3.49559927 0.38941162 4.33110046 0.48242188 C5.13506099 0.57197144 5.93902151 0.661521 6.76734447 0.75378418 C9.141855 1.01564368 11.51743503 1.26279338 13.89453125 1.5 C15.10979492 1.62375 15.10979492 1.62375 16.34960938 1.75 C18.01086968 1.91862912 19.67233481 2.08525086 21.33398438 2.25 C22.53958008 2.37375 22.53958008 2.37375 23.76953125 2.5 C24.48729736 2.5721875 25.20506348 2.644375 25.94458008 2.71875 C28 3 28 3 32 4 C32 84.19 32 164.38 32 247 C0.8505814 247 0.8505814 247 -10.5625 245.5625 C-11.75939453 245.42779297 -12.95628906 245.29308594 -14.18945312 245.15429688 C-22.66461186 244.16769407 -22.66461186 244.16769407 -25 243 C-23.55907288 229.70398615 -21.61901955 216.50952331 -19.55859375 203.296875 C-19.22730634 201.15842306 -18.89626128 199.01993356 -18.56544495 196.88140869 C-17.8772982 192.43708363 -17.18715431 187.99307534 -16.49536133 183.54931641 C-15.60925864 177.85717226 -14.72686743 172.1644607 -13.84577847 166.47153854 C-13.16473214 162.07223708 -12.48245504 157.67312728 -11.7997303 153.274086 C-11.47377942 151.17377328 -11.14804677 149.07342669 -10.82253838 146.97304535 C-10.36908594 144.04923332 -9.91414608 141.12565676 -9.45874023 138.20214844 C-9.32521652 137.33981094 -9.19169281 136.47747345 -9.05412292 135.58900452 C-8.44785714 131.70686172 -7.81663073 127.84489729 -7 124 C-8.21623047 123.83564453 -8.21623047 123.83564453 -9.45703125 123.66796875 C-16.82992727 122.61224557 -23.86041679 121.10582136 -31 119 C-29.21282661 109.11334664 -26.56470833 99.46766425 -23.984375 89.765625 C-23.48570174 87.88212321 -22.98727295 85.99855669 -22.48907471 84.1149292 C-21.4452242 80.17069717 -20.39943146 76.22698746 -19.35205078 72.28369141 C-18.02731307 67.29612909 -16.70582634 62.30771359 -15.38564682 57.31894302 C-14.10718706 52.4883706 -12.82710559 47.65822835 -11.546875 42.828125 C-11.19338612 41.49376781 -11.19338612 41.49376781 -10.83275604 40.13245392 C-7.2827263 26.73819804 -3.66154565 13.36419338 0 0 Z " fill="#FFFFFF" transform="translate(329,473)"/>
<path d="M0 0 C31.1494186 0 31.1494186 0 42.5625 1.4375 C43.75939453 1.57220703 44.95628906 1.70691406 46.18945312 1.84570312 C54.66461186 2.83230593 54.66461186 2.83230593 57 4 C55.55907288 17.29601385 53.61901955 30.49047669 51.55859375 43.703125 C51.22730634 45.84157694 50.89626128 47.98006644 50.56544495 50.11859131 C49.8772982 54.56291637 49.18715431 59.00692466 48.49536133 63.45068359 C47.60925864 69.14282774 46.72686743 74.8355393 45.84577847 80.52846146 C45.16473214 84.92776292 44.48245504 89.32687272 43.7997303 93.725914 C43.47377942 95.82622672 43.14804677 97.92657331 42.82253838 100.02695465 C42.36908594 102.95076668 41.91414608 105.87434324 41.45874023 108.79785156 C41.32521652 109.66018906 41.19169281 110.52252655 41.05412292 111.41099548 C40.44785714 115.29313828 39.81663073 119.15510271 39 123 C39.81082031 123.10957031 40.62164062 123.21914062 41.45703125 123.33203125 C48.82992727 124.38775443 55.86041679 125.89417864 63 128 C61.21282661 137.88665336 58.56470833 147.53233575 55.984375 157.234375 C55.48570174 159.11787679 54.98727295 161.00144331 54.48907471 162.8850708 C53.4452242 166.82930283 52.39943146 170.77301254 51.35205078 174.71630859 C50.02731307 179.70387091 48.70582634 184.69228641 47.38564682 189.68105698 C46.10718706 194.5116294 44.82710559 199.34177165 43.546875 204.171875 C43.31121574 205.06144646 43.07555649 205.95101791 42.83275604 206.86754608 C39.2827263 220.26180196 35.66154565 233.63580662 32 247 C31.38166448 246.93107544 30.76332895 246.86215088 30.12625599 246.7911377 C28.90986454 246.65572571 28.90986454 246.65572571 27.66889954 246.51757812 C26.86493901 246.42802856 26.06097849 246.338479 25.23265553 246.24621582 C22.858145 245.98435632 20.48256497 245.73720662 18.10546875 245.5 C17.29529297 245.4175 16.48511719 245.335 15.65039062 245.25 C13.98913032 245.08137088 12.32766519 244.91474914 10.66601562 244.75 C9.86228516 244.6675 9.05855469 244.585 8.23046875 244.5 C7.51270264 244.4278125 6.79493652 244.355625 6.05541992 244.28125 C4 244 4 244 0 243 C0 162.81 0 82.62 0 0 Z " fill="#FFFFFF" transform="translate(359,0)"/>
<path d="M0 0 C80.19 0 160.38 0 243 0 C243 30 243 30 241.5625 41.5 C241.42779297 42.70140625 241.29308594 43.9028125 241.15429688 45.140625 C240.16540869 53.66918262 240.16540869 53.66918262 239 56 C227.03864522 55.37746992 215.25419886 53.29163107 203.4375 51.4375 C201.15499708 51.08228487 198.87244413 50.72739103 196.58984375 50.37280273 C191.82885474 49.63231903 187.06831281 48.88904653 182.30810547 48.14355469 C176.20451178 47.18775111 170.10009723 46.23731824 163.99537659 45.28874207 C159.29234094 44.55765615 154.5896145 43.82459816 149.88699341 43.09085083 C147.63516697 42.7395793 145.38327516 42.38872655 143.13131714 42.03829956 C139.9934971 41.54954973 136.85607073 41.05834963 133.71875 40.56640625 C132.78885757 40.42196075 131.85896515 40.27751526 130.90089417 40.12869263 C130.04607956 39.99413666 129.19126495 39.85958069 128.31054688 39.72094727 C127.57026245 39.60517838 126.82997803 39.48940948 126.06726074 39.37013245 C124.01508445 39.00270079 122.0157605 38.52990671 120 38 C119.89042969 38.81082031 119.78085937 39.62164062 119.66796875 40.45703125 C118.61224557 47.82992727 117.10582136 54.86041679 115 62 C105.72287745 60.54223708 96.73288867 58.18659966 87.6796875 55.74609375 C86.09304234 55.32174896 84.5062989 54.89777147 82.91946411 54.47413635 C78.7456044 53.35869093 74.57320143 52.23788782 70.40106201 51.11602783 C67.09250641 50.22731368 63.78294966 49.34236607 60.47332382 48.45764732 C38.96334018 42.70751652 17.4748121 36.88004365 -4 31 C-3.93361328 30.40750458 -3.86722656 29.81500916 -3.79882812 29.20455933 C-3.34739646 25.16149656 -2.90046879 21.11880166 -2.5 17.0703125 C-2.4175 16.255625 -2.335 15.4409375 -2.25 14.6015625 C-2.0809911 12.92731812 -1.91438816 11.25282939 -1.75 9.578125 C-1.6675 8.77117187 -1.585 7.96421875 -1.5 7.1328125 C-1.39171875 6.04830811 -1.39171875 6.04830811 -1.28125 4.94189453 C-1 3 -1 3 0 0 Z " fill="#FFFFFF" transform="translate(477,360)"/>
<path d="M0 0 C10.57849316 1.57091845 20.81930217 4.49635254 31.12890625 7.26953125 C33.08779029 7.79313701 35.04677145 8.31637958 37.00584412 8.83927917 C42.14718482 10.21272072 47.28706957 11.59153693 52.42669678 12.97137451 C56.57973441 14.0853557 60.73380561 15.19545155 64.88794041 16.30533314 C69.90613249 17.64618311 74.92382592 18.9888941 79.94140625 20.33203125 C81.33930484 20.70612594 81.33930484 20.70612594 82.7654438 21.08777809 C94.86202899 24.32703036 106.94028904 27.62599298 119 31 C118.93107544 31.61815142 118.86215088 32.23630283 118.7911377 32.87318611 C118.65572571 34.08936276 118.65572571 34.08936276 118.51757812 35.33010864 C118.42802856 36.13388506 118.338479 36.93766148 118.24621582 37.76579475 C117.98319941 40.15245145 117.73635877 42.54024803 117.5 44.9296875 C117.4175 45.744375 117.335 46.5590625 117.25 47.3984375 C117.0809911 49.07268188 116.91438816 50.74717061 116.75 52.421875 C116.6675 53.22882813 116.585 54.03578125 116.5 54.8671875 C116.4278125 55.59019043 116.355625 56.31319336 116.28125 57.05810547 C116 59 116 59 115 62 C34.81 62 -45.38 62 -128 62 C-128 32 -128 32 -126.5625 20.5 C-126.42779297 19.29859375 -126.29308594 18.0971875 -126.15429688 16.859375 C-125.16540869 8.33081738 -125.16540869 8.33081738 -124 6 C-112.03864522 6.62253008 -100.25419886 8.70836893 -88.4375 10.5625 C-86.15499708 10.91771513 -83.87244413 11.27260897 -81.58984375 11.62719727 C-76.82885474 12.36768097 -72.06831281 13.11095347 -67.30810547 13.85644531 C-61.20451178 14.81224889 -55.10009723 15.76268176 -48.99537659 16.71125793 C-44.29234094 17.44234385 -39.5896145 18.17540184 -34.88699341 18.90914917 C-32.63516697 19.2604207 -30.38327516 19.61127345 -28.13131714 19.96170044 C-24.9934971 20.45045027 -21.85607073 20.94165037 -18.71875 21.43359375 C-17.78885757 21.57803925 -16.85896515 21.72248474 -15.90089417 21.87130737 C-14.61867226 22.07314133 -14.61867226 22.07314133 -13.31054688 22.27905273 C-12.57026245 22.39482162 -11.82997803 22.51059052 -11.06726074 22.62986755 C-9.01508445 22.99729921 -7.0157605 23.47009329 -5 24 C-4.89042969 23.18917969 -4.78085938 22.37835938 -4.66796875 21.54296875 C-3.61224557 14.17007273 -2.10582136 7.13958321 0 0 Z " fill="#FFFFFF" transform="translate(128,298)"/>
<path d="M0 0 C6.29803326 0.6330258 11.97074509 2.46709314 17.95703125 4.47265625 C19.03341858 4.82774765 20.10980591 5.18283905 21.21881104 5.5486908 C23.54123929 6.31536981 25.86281672 7.08463002 28.18362427 7.85620117 C34.35285262 9.90695559 40.52830278 11.93882019 46.703125 13.97265625 C47.64921222 14.28466917 47.64921222 14.28466917 48.61441231 14.60298538 C62.40421076 19.15070515 76.22837097 23.58913507 90.0625 28 C91.13593658 28.34233673 92.20937317 28.68467346 93.31533813 29.03738403 C94.36023407 29.37059662 95.40513 29.7038092 96.48168945 30.04711914 C97.48520447 30.36717422 98.48871948 30.68722931 99.52264404 31.01698303 C101.3821271 31.60977211 103.2417742 32.20204699 105.10162354 32.79368591 C109.41144736 34.1661054 113.71339449 35.5561642 118 37 C116.60296056 44.34399965 114.25584165 50.96177371 111.4375 57.875 C111.00002441 58.95966553 110.56254883 60.04433105 110.11181641 61.16186523 C106.11306199 70.95744755 101.6806907 80.51425243 97 90 C91.96609566 89.37873888 87.89002127 87.14394838 83.4296875 84.87890625 C82.59398224 84.46011703 81.75827698 84.04132782 80.89724731 83.60984802 C79.12230923 82.71901896 77.34881217 81.82531375 75.57666016 80.92895508 C72.93557824 79.59313947 70.29055739 78.26544316 67.64453125 76.93945312 C58.37606955 72.28369852 49.16797035 67.52648426 40.00242615 62.67158508 C30.7859577 57.80497692 21.43957068 53.20111945 12.09155273 48.59375 C3.52725315 44.36825538 -4.93766125 40.14569489 -13 35 C-12.39919913 31.49468054 -11.47801217 28.48302246 -10.0390625 25.234375 C-9.64976562 24.34363281 -9.26046875 23.45289063 -8.859375 22.53515625 C-8.45203125 21.61605469 -8.0446875 20.69695312 -7.625 19.75 C-4.750505 13.24993227 -2.10772123 6.79224111 0 0 Z " fill="#FFFFFF" transform="translate(585,433)"/>
<path d="M0 0 C5.03390434 0.62126112 9.10997873 2.85605162 13.5703125 5.12109375 C14.40601776 5.53988297 15.24172302 5.95867218 16.10275269 6.39015198 C17.87769077 7.28098104 19.65118783 8.17468625 21.42333984 9.07104492 C24.06442176 10.40686053 26.70944261 11.73455684 29.35546875 13.06054688 C38.62393045 17.71630148 47.83202965 22.47351574 56.99757385 27.32841492 C66.2140423 32.19502308 75.56042932 36.79888055 84.90844727 41.40625 C93.47274685 45.63174462 101.93766125 49.85430511 110 55 C109.39919913 58.50531946 108.47801217 61.51697754 107.0390625 64.765625 C106.64976562 65.65636719 106.26046875 66.54710937 105.859375 67.46484375 C105.45203125 68.38394531 105.0446875 69.30304688 104.625 70.25 C101.750505 76.75006773 99.10772123 83.20775889 97 90 C90.70196674 89.3669742 85.02925491 87.53290686 79.04296875 85.52734375 C77.96658142 85.17225235 76.89019409 84.81716095 75.78118896 84.4513092 C73.45876071 83.68463019 71.13718328 82.91536998 68.81637573 82.14379883 C62.64714738 80.09304441 56.47169722 78.06117981 50.296875 76.02734375 C49.35078778 75.71533083 49.35078778 75.71533083 48.38558769 75.39701462 C34.59578924 70.84929485 20.77162903 66.41086493 6.9375 62 C5.86406342 61.65766327 4.79062683 61.31532654 3.68466187 60.96261597 C2.63976593 60.62940338 1.59487 60.2961908 0.51831055 59.95288086 C-0.48520447 59.63282578 -1.48871948 59.31277069 -2.52264404 58.98301697 C-4.3821271 58.39022789 -6.2417742 57.79795301 -8.10162354 57.20631409 C-12.41144736 55.8338946 -16.71339449 54.4438358 -21 53 C-19.60296056 45.65600035 -17.25584165 39.03822629 -14.4375 32.125 C-14.00002441 31.04033447 -13.56254883 29.95566895 -13.11181641 28.83813477 C-9.11306199 19.04255245 -4.6806907 9.48574757 0 0 Z " fill="#FFFFFF" transform="translate(38,197)"/>
<path d="M0 0 C3.50531946 0.60080087 6.51697754 1.52198783 9.765625 2.9609375 C10.65636719 3.35023438 11.54710937 3.73953125 12.46484375 4.140625 C13.38394531 4.54796875 14.30304688 4.9553125 15.25 5.375 C21.75006773 8.249495 28.20775889 10.89227877 35 13 C34.42924169 17.66266129 33.53203826 21.92377102 32.07324219 26.38623047 C31.67440323 27.6160968 31.27556427 28.84596313 30.86463928 30.11309814 C30.42546107 31.44781979 29.98620402 32.78251549 29.546875 34.1171875 C29.08946083 35.52136943 28.63259933 36.92573149 28.17625427 38.33026123 C27.20806118 41.30678253 26.23647715 44.28216513 25.26205444 47.25665283 C22.98882218 54.19613619 20.73177 61.14088807 18.4728756 68.08504868 C17.72329498 70.38866205 16.97299895 72.69204151 16.22261047 74.99539185 C11.59658895 89.20227971 7.07251189 103.4405526 2.59472656 117.69482422 C2.35142105 118.4674762 2.10811554 119.24012817 1.85743713 120.03619385 C1.41454854 121.44320441 0.97312817 122.85067844 0.53355408 124.25872803 C-0.19899755 126.58650862 -0.90666754 128.81333508 -2 131 C-9.34399965 129.60296056 -15.96177371 127.25584165 -22.875 124.4375 C-23.95966553 124.00002441 -25.04433105 123.56254883 -26.16186523 123.11181641 C-35.95744755 119.11306199 -45.51425243 114.6806907 -55 110 C-54.42231311 106.53366488 -53.54862734 103.74375901 -51.93725586 100.62573242 C-51.50790237 99.7872728 -51.07854889 98.94881317 -50.63618469 98.08494568 C-50.16714218 97.18421829 -49.69809967 96.28349091 -49.21484375 95.35546875 C-48.4825782 93.93059898 -48.4825782 93.93059898 -47.73551941 92.47694397 C-46.14158152 89.37764739 -44.53945887 86.28265708 -42.9375 83.1875 C-40.73299897 78.90632353 -38.53266833 74.62300737 -36.33203125 70.33984375 C-35.78581116 69.27819 -35.23959106 68.21653625 -34.67681885 67.12271118 C-30.08968393 58.19943097 -25.58812869 49.23578253 -21.125 40.25 C-14.37433544 26.67859257 -7.58128676 13.13065207 0 0 Z " fill="#FFFFFF" transform="translate(252,572)"/>
<path d="M0 0 C7.34399965 1.39703944 13.96177371 3.74415835 20.875 6.5625 C21.95966553 6.99997559 23.04433105 7.43745117 24.16186523 7.88818359 C33.95744755 11.88693801 43.51425243 16.3193093 53 21 C52.42231311 24.46633512 51.54862734 27.25624099 49.93725586 30.37426758 C49.50790237 31.2127272 49.07854889 32.05118683 48.63618469 32.91505432 C48.16714218 33.81578171 47.69809967 34.71650909 47.21484375 35.64453125 C46.72666672 36.59444443 46.23848969 37.5443576 45.73551941 38.52305603 C44.14158152 41.62235261 42.53945887 44.71734292 40.9375 47.8125 C38.73299897 52.09367647 36.53266833 56.37699263 34.33203125 60.66015625 C33.51270111 62.25263687 33.51270111 62.25263687 32.67681885 63.87728882 C28.08968393 72.80056903 23.58812869 81.76421747 19.125 90.75 C12.37433544 104.32140743 5.58128676 117.86934793 -2 131 C-5.50531946 130.39919913 -8.51697754 129.47801217 -11.765625 128.0390625 C-13.10173828 127.45511719 -13.10173828 127.45511719 -14.46484375 126.859375 C-15.38394531 126.45203125 -16.30304688 126.0446875 -17.25 125.625 C-23.75006773 122.750505 -30.20775889 120.10772123 -37 118 C-36.42924169 113.33733871 -35.53203826 109.07622898 -34.07324219 104.61376953 C-33.67440323 103.3839032 -33.27556427 102.15403687 -32.86463928 100.88690186 C-32.42546107 99.55218021 -31.98620402 98.21748451 -31.546875 96.8828125 C-31.08946083 95.47863057 -30.63259933 94.07426851 -30.17625427 92.66973877 C-29.20806118 89.69321747 -28.23647715 86.71783487 -27.26205444 83.74334717 C-24.98882218 76.80386381 -22.73177 69.85911193 -20.4728756 62.91495132 C-19.72329498 60.61133795 -18.97299895 58.30795849 -18.22261047 56.00460815 C-13.59658895 41.79772029 -9.07251189 27.5594474 -4.59472656 13.30517578 C-4.35142105 12.5325238 -4.10811554 11.75987183 -3.85743713 10.96380615 C-3.41454854 9.55679559 -2.97312817 8.14932156 -2.53355408 6.74127197 C-1.80100245 4.41349138 -1.09333246 2.18666492 0 0 Z " fill="#FFFFFF" transform="translate(470,17)"/>
</svg>
