<?xml version="1.0" encoding="UTF-8"?>
<svg version="1.1" xmlns="http://www.w3.org/2000/svg" width="1544" height="1634" viewBox="0 0 1544 1634">
<path d="M0 0 C8.24002491 5.95236301 16.15947781 12.12709613 23.64453125 19.0234375 C25.65147233 20.86690157 27.69755992 22.64154093 29.7734375 24.40625 C33.30246157 27.48430345 36.64255614 30.72987805 39.9609375 34.03125 C40.44353027 34.50925049 40.92612305 34.98725098 41.42333984 35.47973633 C65.50940872 59.66734849 84.77177179 88.72872769 101.8984375 118.09375 C102.45893799 119.03420166 102.45893799 119.03420166 103.03076172 119.99365234 C105.8984375 124.86782113 105.8984375 124.86782113 105.8984375 127.09375 C106.8884375 126.76375 107.8784375 126.43375 108.8984375 126.09375 C131.23638704 123.43728144 153.94914032 123.72844679 176.40258789 123.77569199 C179.12654683 123.78133411 181.85049953 123.78415362 184.57446289 123.78677368 C210.30791548 123.82274934 235.92389595 124.11726093 261.53747559 126.84375 C263.99323622 127.10378815 266.45003806 127.35149952 268.90722656 127.59765625 C311.67115143 131.93457273 354.10356071 139.07216663 395.8984375 149.09375 C397.11732666 149.3850882 397.11732666 149.3850882 398.36083984 149.68231201 C423.85695113 155.79544058 448.95570712 163.02178842 473.8984375 171.09375 C474.87889038 171.41025513 474.87889038 171.41025513 475.87915039 171.7331543 C509.73319441 182.68968185 542.83940302 195.96927486 574.99139404 211.1920166 C576.88459497 212.08720465 578.78008854 212.97735497 580.67626953 213.86621094 C616.30361848 230.5893235 652.39334802 249.22213637 684.40625 272.3125 C685.13175049 272.83158936 685.85725098 273.35067871 686.60473633 273.88549805 C687.96548781 274.86800888 689.31528501 275.86595564 690.65112305 276.88208008 C693.40436481 278.87618698 695.3377946 280.07089771 698.7734375 280.2109375 C703.21119707 278.62443846 707.05688736 276.33057389 711.0859375 273.90625 C770.09301927 239.36017187 857.60203584 192.03794556 928.1875 210.12890625 C952.36873386 216.92062741 967.04468882 234.97228355 979.15234375 255.96484375 C1009.28498863 309.70204855 1016.73680501 376.38537072 1017.8984375 437.09375 C1017.91503418 437.95500488 1017.93163086 438.81625977 1017.94873047 439.70361328 C1018.04092721 445.50290209 1018.00770914 451.29492661 1017.8984375 457.09375 C1017.88055176 458.05700195 1017.86266602 459.02025391 1017.84423828 460.01269531 C1016.12710137 539.30180555 1000.34168101 619.52932032 921.75927734 782.14477539 C919.73603034 785.08453274 917.8068868 788.07866828 915.8984375 791.09375 C915.28097656 792.03863281 914.66351562 792.98351562 914.02734375 793.95703125 C909.01780065 803.57275165 911.7489388 813.18690654 913.65234375 823.3984375 C916.96717207 842.33053645 917.27259927 861.48552097 917.2109375 880.65625 C917.20911469 881.83863251 917.20729187 883.02101501 917.20541382 884.23922729 C917.1584616 902.3705835 916.6176818 920.13990006 913.8984375 938.09375 C913.72151367 939.28532715 913.54458984 940.4769043 913.36230469 941.70458984 C903.46212139 1006.72263301 880.14147398 1067.99135947 843.6484375 1122.78125 C843.23036835 1123.40923492 842.81229919 1124.03721985 842.38156128 1124.68423462 C836.80926725 1133.02575505 831.00407779 1141.13127059 824.8984375 1149.09375 C824.38941895 1149.76075928 823.88040039 1150.42776855 823.35595703 1151.11499023 C814.01061933 1163.29156795 804.04552307 1174.90540111 793.61328125 1186.16015625 C791.78226631 1188.1387062 789.96096655 1190.12242752 788.15234375 1192.12109375 C772.3817321 1209.52603805 772.3817321 1209.52603805 763.8984375 1216.09375 C765.19901387 1219.54260665 766.70603039 1222.64898213 768.59375 1225.8125 C769.13652588 1226.7295874 769.67930176 1227.6466748 770.23852539 1228.59155273 C770.82754639 1229.58227783 771.41656738 1230.57300293 772.0234375 1231.59375 C789.91142526 1261.99281373 806.56351469 1293.05864504 821.05731201 1325.22723389 C821.62235571 1326.48110526 822.18832847 1327.73455835 822.75518799 1328.98760986 C837.52777192 1361.6433979 850.00715086 1394.95195217 860.8984375 1429.09375 C861.27838867 1430.27952637 861.65833984 1431.46530273 862.04980469 1432.68701172 C879.9705559 1489.1827993 888.0498088 1546.93763176 889.8984375 1606.09375 C422.6184375 1606.09375 -44.6615625 1606.09375 -526.1015625 1606.09375 C-526.1015625 1598.09478721 -526.04103915 1590.49650687 -525.25390625 1582.6015625 C-525.16224686 1581.63856735 -525.07058746 1580.6755722 -524.97615051 1579.68339539 C-524.67210655 1576.52763419 -524.35688251 1573.37315211 -524.0390625 1570.21875 C-523.92896851 1569.11373138 -523.81887451 1568.00871277 -523.70544434 1566.87020874 C-513.37571863 1463.7318847 -495.65818584 1360.40621183 -363.1015625 1071.09375 C-364.48490939 1067.44224245 -366.12326913 1064.0745035 -368.0078125 1060.65625 C-368.58168701 1059.60767822 -369.15556152 1058.55910645 -369.74682617 1057.47875977 C-370.66492065 1055.80317993 -370.66492065 1055.80317993 -371.6015625 1054.09375 C-401.34656328 999.32101309 -420.02411526 940.15626271 -426.1015625 878.09375 C-426.24513184 876.7473645 -426.24513184 876.7473645 -426.39160156 875.3737793 C-427.50030959 863.50484132 -427.3454711 851.56575847 -427.3515625 839.65625 C-427.35223724 838.47223602 -427.35291199 837.28822205 -427.35360718 836.06832886 C-427.33714264 817.86824008 -426.7455243 800.12362653 -424.1015625 782.09375 C-423.94059082 780.92150879 -423.77961914 779.74926758 -423.61376953 778.54150391 C-415.19836768 718.16241031 -393.30882241 661.2835664 -361.890625 609.1875 C-361.2812207 608.17429687 -360.67181641 607.16109375 -360.04394531 606.1171875 C-358.1015625 603.09375 -358.1015625 603.09375 -355.77636719 600.0703125 C-351.58755997 594.73793218 -351.58755997 594.73793218 -349.92236328 588.34838867 C-350.44139182 585.18605733 -351.25387399 582.18457291 -352.1015625 579.09375 C-352.70825857 576.06817302 -353.22812352 573.02815407 -353.7578125 569.98828125 C-354.05960279 568.32718336 -354.36301442 566.6663793 -354.66796875 565.00585938 C-354.82152832 564.16563232 -354.97508789 563.32540527 -355.13330078 562.4597168 C-355.4438872 560.76606543 -355.75604563 559.07270154 -356.06982422 557.37963867 C-369.30523373 485.86259638 -359.1657996 413.90321164 -326.45703125 348.80859375 C-326.13966507 348.17659058 -325.82229889 347.5445874 -325.49531555 346.89343262 C-323.91250396 343.74627443 -322.32016416 340.60455319 -320.71020508 337.47119141 C-320.12779053 336.3269873 -319.54537598 335.1827832 -318.9453125 334.00390625 C-318.15930664 332.47455444 -318.15930664 332.47455444 -317.35742188 330.91430664 C-316.17540025 328.2595835 -315.58748652 325.9423871 -315.1015625 323.09375 C-314.7715625 322.43375 -314.4415625 321.77375 -314.1015625 321.09375 C-313.1115625 321.09375 -312.1215625 321.09375 -311.1015625 321.09375 C-310.85148438 320.40796875 -310.60140625 319.7221875 -310.34375 319.015625 C-301.25847151 297.64522151 -284.36463958 277.60191708 -268.6015625 260.77734375 C-266.46526827 258.48416542 -264.39453484 256.15711739 -262.3515625 253.78125 C-252.23236279 242.14777575 -240.10418891 232.68754482 -228.1015625 223.09375 C-227.32296875 222.46984375 -226.544375 221.8459375 -225.7421875 221.203125 C-224.1015625 220.09375 -224.1015625 220.09375 -222.1015625 220.09375 C-221.98184082 219.10898682 -221.86211914 218.12422363 -221.73876953 217.10961914 C-221.13553731 212.91294398 -220.06574642 208.91279947 -218.90625 204.83984375 C-218.6824617 204.04310745 -218.4586734 203.24637115 -218.22810364 202.42549133 C-217.48459105 199.79202854 -216.7319826 197.16132082 -215.9765625 194.53125 C-215.7141275 193.61581421 -215.4516925 192.70037842 -215.18130493 191.75720215 C-202.96824807 149.3049257 -189.29569362 106.97543316 -170.1015625 67.09375 C-169.6684375 66.18125488 -169.2353125 65.26875977 -168.7890625 64.32861328 C-156.86029694 39.30719913 -143.16418842 16.32131417 -124.1015625 -3.90625 C-123.44671875 -4.61394531 -122.791875 -5.32164063 -122.1171875 -6.05078125 C-86.36180101 -43.45091552 -37.12184461 -25.62932833 0 0 Z " fill="#F09528" transform="translate(526.1015625,27.90625)"/>
<path d="M0 0 C1.02480469 0.49814209 1.02480469 0.49814209 2.0703125 1.00634766 C22.83440313 11.10052717 41.40658984 25.16487872 59 40 C59.53302734 40.44811035 60.06605469 40.8962207 60.61523438 41.35791016 C70.35148 49.55933713 80.08411178 57.90027904 89 67 C87.49306485 72.2577133 85.08872666 76.61441165 82.375 81.3125 C64.38522833 113.22231113 51.97024256 148.65921323 47 185 C46.85191895 186.07185547 46.70383789 187.14371094 46.55126953 188.24804688 C44.33782448 205.107398 43.71403699 221.82416566 43.6875 238.8125 C43.68212219 240.19637909 43.68212219 240.19637909 43.67663574 241.60821533 C43.63945316 259.35261239 45.41785814 276.35791709 48.875 293.75 C49.24044922 295.67005859 49.24044922 295.67005859 49.61328125 297.62890625 C51.29661435 306.23745429 53.47709018 314.60196829 56 323 C56.39054541 324.36423396 56.78012606 325.72874522 57.16796875 327.09375 C73.08278864 380.26510227 105.70001752 432.84238193 150 467 C151.24030067 467.99129063 152.47982877 468.98354837 153.71875 469.9765625 C168.59608796 481.77103201 184.61638324 491.96219894 201.8359375 499.99023438 C203.36819699 500.70519661 204.89647615 501.42871803 206.421875 502.15820312 C242.72612602 519.51273524 279.32612273 529.1895457 319.61303711 529.18530273 C321.93166345 529.18749448 324.24981611 529.20575545 326.56835938 529.22460938 C336.23467474 529.26148559 345.43954751 528.54134699 355 527 C356.00635498 526.84861572 357.01270996 526.69723145 358.04956055 526.54125977 C382.8686285 522.74470168 407.32393989 515.58283506 429.609375 503.80078125 C432 503 432 503 434.13671875 503.68359375 C439.8715916 507.73527541 444.16387731 513.29360697 448.5 518.75 C448.93836182 519.2975293 449.37672363 519.84505859 449.82836914 520.40917969 C456.78422119 529.31533039 461.89803225 538.16766544 465.375 548.9375 C465.74729736 550.05358643 466.11959473 551.16967285 466.50317383 552.31958008 C467.68354335 555.87503814 468.8416012 559.43733169 470 563 C470.78688553 565.37008232 471.57464338 567.73987519 472.36328125 570.109375 C476.89070164 583.8296039 480.86906932 597.59891092 484.38427734 611.60986328 C485.22370723 614.86839564 486.16792615 618.08653293 487.125 621.3125 C494.31034306 646.28305171 502.37541559 676.57463125 494 702 C491.54359021 699.54359021 490.93044742 697.46782847 489.75 694.19921875 C489.31083252 693.00321045 488.87166504 691.80720215 488.41918945 690.57495117 C488.18769196 689.93995697 487.95619446 689.30496277 487.71768188 688.65072632 C482.87011942 675.39016838 477.38547001 662.60527429 471 650 C471.84274071 657.3587771 473.13053286 664.61037332 474.45117188 671.89648438 C474.99017363 674.92760072 475.5008318 677.96207165 476 681 C476.18530273 682.09570312 476.37060547 683.19140625 476.56152344 684.3203125 C478.12560538 694.55283424 478.37236545 704.66018789 478.37060547 714.99658203 C478.37498353 717.86420944 478.4114581 720.73029857 478.44921875 723.59765625 C478.53954772 738.15769837 477.2908461 752.52365211 470.1875 765.5625 C469.84203125 766.2232251 469.4965625 766.8839502 469.140625 767.56469727 C466.37394977 772.68697349 463.1172597 776.8827403 459 781 C457.67823246 782.44993894 456.36613083 783.90873296 455.0625 785.375 C454.38832031 786.13039063 453.71414063 786.88578125 453.01953125 787.6640625 C451.02158112 789.9750377 449.13100085 792.34325357 447.25 794.75 C437.70154169 806.81714613 426.78031594 818.10898001 415 828 C414.47470703 828.4444043 413.94941406 828.88880859 413.40820312 829.34667969 C376.96732446 860.04962995 335.23709171 881.48240713 290.4375 897.25 C289.31851318 897.64550049 288.19952637 898.04100098 287.04663086 898.44848633 C286.01932861 898.80064209 284.99202637 899.15279785 283.93359375 899.515625 C283.02665771 899.82790039 282.11972168 900.14017578 281.18530273 900.46191406 C279 901 279 901 277 900 C277.99636187 898.97561545 278.99739287 897.95577287 280 896.9375 C280.556875 896.36902344 281.11375 895.80054688 281.6875 895.21484375 C283.65998304 893.32565814 285.66915794 891.52841359 287.73046875 889.73828125 C292.02059421 886.0084074 296.17574875 882.14846813 300.3125 878.25 C301.01439453 877.59128906 301.71628906 876.93257812 302.43945312 876.25390625 C305.32996086 873.53699431 308.20723977 870.81778591 311 868 C310.47792969 868.32162109 309.95585938 868.64324219 309.41796875 868.97460938 C298.18156319 875.87191261 286.91708135 882.35765354 275 888 C273.95199219 888.50789063 272.90398438 889.01578125 271.82421875 889.5390625 C230.74021731 909.06309876 185.12738 921.92303292 140.09912109 927.71630859 C137.32312608 928.09147796 134.56979932 928.56972209 131.8125 929.0625 C118.52585916 931.3370292 105.01211246 932.39261958 91.5625 933.125 C90.42669495 933.18803818 90.42669495 933.18803818 89.26794434 933.25234985 C74.43239203 934.04810258 59.60449575 934.18832239 44.75 934.1875 C43.70087433 934.18840637 42.65174866 934.18931274 41.5708313 934.19024658 C20.94612124 934.18822631 0.29405413 933.74254337 -20.25 931.8125 C-20.91033234 931.75097748 -21.57066467 931.68945496 -22.25100708 931.62606812 C-91.93723599 925.05304479 -160.62482463 910.21440246 -227.1875 888.625 C-227.94986969 888.37792297 -228.71223938 888.13084595 -229.49771118 887.87628174 C-237.84795628 885.15737504 -246.09719737 882.27443125 -254.27563477 879.06787109 C-257.4554754 877.82146703 -260.66352268 876.66209937 -263.875 875.5 C-328.57073982 851.3894814 -390.21618897 817.33671835 -444 774 C-445.39412109 772.88044922 -445.39412109 772.88044922 -446.81640625 771.73828125 C-464.82046076 757.1411075 -481.5974805 741.48528102 -498 725.125 C-498.59058197 724.53709686 -499.18116394 723.94919373 -499.78964233 723.34347534 C-506.08170213 717.07306668 -512.2657492 710.79228765 -518 704 C-518.94872072 702.91639007 -519.8991948 701.8343123 -520.8515625 700.75390625 C-528.11077829 692.42974668 -534.86268294 683.78712826 -541.50537109 674.96630859 C-542.83463572 673.21755046 -544.18371963 671.48878869 -545.55078125 669.76953125 C-563.53429481 647.0178848 -578.55372798 621.64122803 -592 596 C-592.78093018 594.52200928 -592.78093018 594.52200928 -593.57763672 593.01416016 C-612.52378273 556.94793329 -627.33895458 517.84709645 -636 478 C-636.20592773 477.11344727 -636.41185547 476.22689453 -636.62402344 475.31347656 C-636.81770508 474.43916992 -637.01138672 473.56486328 -637.2109375 472.6640625 C-637.47463135 471.49931396 -637.47463135 471.49931396 -637.74365234 470.31103516 C-638.05359282 467.51684792 -637.97452013 465.6510251 -637 463 C-634.82958984 461.68554688 -634.82958984 461.68554688 -631.9609375 460.71875 C-630.91365479 460.35442871 -629.86637207 459.99010742 -628.78735352 459.61474609 C-627.66127686 459.24687988 -626.5352002 458.87901367 -625.375 458.5 C-624.22507568 458.1076416 -623.07515137 457.7152832 -621.89038086 457.31103516 C-619.60780217 456.5347879 -617.32227542 455.76714812 -615.03369141 455.00878906 C-612.65086304 454.21643056 -610.28144947 453.40222033 -607.91796875 452.5546875 C-596.82917364 448.65618212 -585.42994681 445.80117937 -574.06933594 442.81689453 C-571.44741711 442.11907872 -568.83566473 441.39627065 -566.2265625 440.65234375 C-519.82841682 427.54602068 -467.96817548 422.91897967 -420 428 C-488.62318463 410.21252599 -564.42108016 429.73718796 -627.97265625 456.8984375 C-631.60302496 458.4419957 -635.22455609 459.84126342 -639 461 C-639.48345066 457.56308878 -639.96094119 454.12537306 -640.4375 450.6875 C-640.57220703 449.73037109 -640.70691406 448.77324219 -640.84570312 447.78710938 C-642.58288007 435.20316909 -643.23943605 422.81882603 -643.25 410.125 C-643.25100708 409.27907288 -643.25201416 408.43314575 -643.25305176 407.56158447 C-643.22188827 368.33866731 -640.06956291 326.54208445 -628.0625 289.0625 C-627.84609863 288.3713208 -627.62969727 287.6801416 -627.40673828 286.96801758 C-623.81609025 276.49465344 -618.24233979 270.72635091 -608.625 265.4375 C-607.69816406 264.90576172 -606.77132812 264.37402344 -605.81640625 263.82617188 C-603.55414581 262.53178575 -601.28296272 261.25739054 -599 260 C-599.85231201 260.21205078 -600.70462402 260.42410156 -601.58276367 260.64257812 C-604.75922462 261.42993378 -607.93688054 262.21205885 -611.11547852 262.99072266 C-612.4883859 263.32816637 -613.86079126 263.66765973 -615.23266602 264.00927734 C-617.20980021 264.50123021 -619.18864951 264.9856738 -621.16796875 265.46875 C-622.95110474 265.90864258 -622.95110474 265.90864258 -624.77026367 266.35742188 C-627.62968858 266.92632401 -630.09948361 267.13390677 -633 267 C-625.27206323 250.256137 -602.92647866 235.59049196 -587 228 C-583.9609375 226.97265625 -583.9609375 226.97265625 -581 227 C-578.47265625 229.24609375 -578.47265625 229.24609375 -576.0625 232.4375 C-575.19350965 233.55661227 -574.32371572 234.67510101 -573.453125 235.79296875 C-573.03482422 236.34388184 -572.61652344 236.89479492 -572.18554688 237.46240234 C-570.6412134 239.46532908 -568.99338009 241.36090278 -567.3125 243.25 C-565.62118845 245.15865299 -563.9409999 247.06996112 -562.296875 249.01953125 C-558.20995111 253.83363304 -553.89262684 258.01037476 -549 262 C-548.08734375 262.75023437 -547.1746875 263.50046875 -546.234375 264.2734375 C-516.96877243 287.58297523 -484.64519853 298.36365355 -448 304 C-446.38339478 304.27046143 -446.38339478 304.27046143 -444.73413086 304.54638672 C-440.22220948 305.09448413 -435.79467009 305.1810988 -431.25390625 305.203125 C-430.32513168 305.20882507 -429.39635712 305.21452515 -428.43943787 305.22039795 C-426.47697066 305.2298108 -424.51448792 305.23636709 -422.55200195 305.24023438 C-419.60273251 305.24986857 -416.65418232 305.28089805 -413.70507812 305.3125 C-402.37268549 305.37514125 -392.05951686 304.46827688 -381 302 C-378.75172121 301.63506643 -376.50188784 301.27945784 -374.25 300.9375 C-333.01676248 292.59475809 -294.89690629 268.76614149 -264 241 C-263.13737549 240.22994629 -263.13737549 240.22994629 -262.25732422 239.44433594 C-256.42069509 234.21774539 -250.68027734 228.98296628 -245.6484375 222.95703125 C-243.79386097 220.75527096 -241.83665751 218.66933433 -239.875 216.5625 C-219.70697521 194.10808322 -204.1000094 168.06338216 -191 141 C-190.69852051 140.38302246 -190.39704102 139.76604492 -190.08642578 139.13037109 C-179.26273837 116.91022066 -171.12461092 93.43291479 -165.75 69.3125 C-165.49557129 68.19190186 -165.24114258 67.07130371 -164.97900391 65.91674805 C-163.79988745 60.51410084 -162.86348179 55.23652178 -162.41015625 49.72265625 C-161.1926615 36.39682132 -161.1926615 36.39682132 -157.56835938 32.43505859 C-153.31065579 29.33496297 -148.37816399 27.83003558 -143.42089844 26.1953125 C-139.39586758 24.7889072 -135.49396246 23.16463475 -131.5703125 21.5 C-36.38047098 -18.68821198 -36.38047098 -18.68821198 0 0 Z " fill="#F9CA8C" transform="translate(789,444)"/>
</svg>
